<svg width="210" height="50" viewBox="0 0 210 50" fill="none" xmlns="http://www.w3.org/2000/svg">
<path d="M65.5 36.63L73.3 18.9H80.02V20.04C79.38 20.06 78.86 20.14 78.46 20.28C78.08 20.42 77.78 20.66 77.56 21C77.36 21.32 77.22 21.77 77.14 22.35C77.08 22.93 77.05 23.67 77.05 24.57V36.33C77.05 37.33 77.09 38.12 77.17 38.7C77.25 39.28 77.4 39.73 77.62 40.05C77.86 40.37 78.19 40.58 78.61 40.68C79.05 40.78 79.62 40.84 80.32 40.86V42H70.6V40.86C71.3 40.84 71.86 40.78 72.28 40.68C72.72 40.56 73.06 40.35 73.3 40.05C73.54 39.75 73.7 39.33 73.78 38.79C73.86 38.23 73.9 37.48 73.9 36.54V22.62H73.6L64.84 42.3H64.18L55.57 22.62H55.45V36.33C55.45 37.33 55.49 38.12 55.57 38.7C55.65 39.28 55.8 39.73 56.02 40.05C56.26 40.37 56.59 40.58 57.01 40.68C57.45 40.78 58.02 40.84 58.72 40.86V42H50.35V40.86C51.05 40.84 51.61 40.78 52.03 40.68C52.47 40.56 52.81 40.35 53.05 40.05C53.29 39.75 53.45 39.33 53.53 38.79C53.61 38.23 53.65 37.48 53.65 36.54V24.36C53.65 23.52 53.61 22.83 53.53 22.29C53.47 21.73 53.33 21.29 53.11 20.97C52.91 20.65 52.61 20.43 52.21 20.31C51.81 20.17 51.29 20.08 50.65 20.04V18.9H57.82L65.38 36.63H65.5ZM96.5936 39.21C94.8936 41.27 92.7836 42.3 90.2636 42.3C89.0836 42.3 88.0136 42.11 87.0536 41.73C86.0936 41.33 85.2636 40.78 84.5636 40.08C83.8836 39.36 83.3536 38.51 82.9736 37.53C82.5936 36.53 82.4036 35.43 82.4036 34.23C82.4036 33.01 82.6036 31.88 83.0036 30.84C83.4036 29.8 83.9636 28.91 84.6836 28.17C85.4236 27.43 86.2936 26.85 87.2936 26.43C88.3136 26.01 89.4236 25.8 90.6236 25.8C92.5636 25.8 94.0636 26.33 95.1236 27.39C96.1836 28.43 96.7136 29.93 96.7136 31.89C96.7136 32.17 96.6536 32.34 96.5336 32.4C96.4336 32.46 96.1836 32.49 95.7836 32.49H85.9136C85.8736 32.65 85.8436 32.85 85.8236 33.09C85.8036 33.31 85.7936 33.56 85.7936 33.84C85.7936 34.88 85.9136 35.83 86.1536 36.69C86.4136 37.53 86.7736 38.25 87.2336 38.85C87.7136 39.45 88.2736 39.92 88.9136 40.26C89.5736 40.58 90.3036 40.74 91.1036 40.74C91.9436 40.74 92.7236 40.56 93.4436 40.2C94.1636 39.82 94.9036 39.21 95.6636 38.37L96.5936 39.21ZM91.6436 31.11C92.0436 31.11 92.3636 31.1 92.6036 31.08C92.8436 31.06 93.0236 31.02 93.1436 30.96C93.2636 30.9 93.3436 30.82 93.3836 30.72C93.4236 30.6 93.4436 30.45 93.4436 30.27C93.4436 29.35 93.1436 28.62 92.5436 28.08C91.9636 27.52 91.1636 27.24 90.1436 27.24C87.9836 27.24 86.6436 28.53 86.1236 31.11H91.6436ZM112.651 39.48H112.531C111.811 40.5 111.041 41.23 110.221 41.67C109.421 42.09 108.471 42.3 107.371 42.3C106.231 42.3 105.181 42.1 104.221 41.7C103.281 41.28 102.461 40.71 101.761 39.99C101.081 39.25 100.541 38.37 100.141 37.35C99.7609 36.33 99.5709 35.22 99.5709 34.02C99.5709 32.84 99.7609 31.75 100.141 30.75C100.541 29.73 101.081 28.86 101.761 28.14C102.461 27.4 103.291 26.83 104.251 26.43C105.211 26.01 106.251 25.8 107.371 25.8C108.331 25.8 109.181 25.96 109.921 26.28C110.681 26.6 111.411 27.11 112.111 27.81V24.75C112.111 23.61 112.091 22.66 112.051 21.9C112.031 21.14 111.991 20.62 111.931 20.34C111.831 19.9 111.551 19.59 111.091 19.41C110.631 19.23 109.881 19.14 108.841 19.14V18.24L114.991 17.1V34.41C114.991 35.79 115.001 36.93 115.021 37.83C115.041 38.71 115.101 39.34 115.201 39.72C115.261 39.96 115.331 40.16 115.411 40.32C115.511 40.48 115.641 40.61 115.801 40.71C115.981 40.79 116.211 40.85 116.491 40.89C116.791 40.93 117.171 40.95 117.631 40.95V41.97L112.651 42.3V39.48ZM112.051 32.85C112.051 31.81 111.991 31.02 111.871 30.48C111.771 29.94 111.561 29.47 111.241 29.07C110.781 28.47 110.191 28.02 109.471 27.72C108.771 27.4 108.071 27.24 107.371 27.24C105.931 27.24 104.831 27.84 104.071 29.04C103.331 30.22 102.961 31.83 102.961 33.87C102.961 34.93 103.051 35.89 103.231 36.75C103.431 37.61 103.711 38.35 104.071 38.97C104.451 39.57 104.911 40.04 105.451 40.38C106.011 40.7 106.651 40.86 107.371 40.86C107.731 40.86 108.091 40.82 108.451 40.74C108.831 40.66 109.191 40.54 109.531 40.38C109.891 40.2 110.221 40 110.521 39.78C110.821 39.54 111.071 39.27 111.271 38.97C111.551 38.53 111.751 38 111.871 37.38C111.991 36.76 112.051 35.91 112.051 34.83V32.85ZM125.215 37.23C125.215 38.01 125.245 38.64 125.305 39.12C125.385 39.58 125.525 39.95 125.725 40.23C125.925 40.49 126.205 40.67 126.565 40.77C126.925 40.87 127.405 40.93 128.005 40.95V42H119.395V40.95C119.995 40.93 120.485 40.87 120.865 40.77C121.245 40.65 121.535 40.47 121.735 40.23C121.955 39.97 122.095 39.62 122.155 39.18C122.235 38.72 122.275 38.14 122.275 37.44V33.6C122.275 32.44 122.255 31.49 122.215 30.75C122.195 29.99 122.145 29.47 122.065 29.19C121.965 28.73 121.735 28.42 121.375 28.26C121.015 28.08 120.335 27.99 119.335 27.99V26.94L125.215 25.8V37.23ZM121.765 19.71C121.765 19.19 121.945 18.75 122.305 18.39C122.665 18.03 123.105 17.85 123.625 17.85C124.145 17.85 124.585 18.03 124.945 18.39C125.305 18.75 125.485 19.19 125.485 19.71C125.485 20.23 125.305 20.67 124.945 21.03C124.585 21.39 124.145 21.57 123.625 21.57C123.105 21.57 122.665 21.39 122.305 21.03C121.945 20.67 121.765 20.23 121.765 19.71ZM136.4 37.23C136.4 37.99 136.44 38.61 136.52 39.09C136.62 39.55 136.82 39.91 137.12 40.17C137.42 40.41 137.84 40.58 138.38 40.68C138.94 40.78 139.67 40.84 140.57 40.86V42H129.95V40.86C130.65 40.84 131.21 40.78 131.63 40.68C132.07 40.58 132.41 40.41 132.65 40.17C132.89 39.93 133.05 39.59 133.13 39.15C133.21 38.71 133.25 38.14 133.25 37.44V23.46C133.25 22.76 133.21 22.2 133.13 21.78C133.07 21.34 132.93 21 132.71 20.76C132.51 20.5 132.21 20.33 131.81 20.25C131.41 20.15 130.89 20.08 130.25 20.04V18.9H147.59L147.92 24.63H146.87C146.75 23.77 146.56 23.07 146.3 22.53C146.04 21.97 145.67 21.53 145.19 21.21C144.73 20.89 144.14 20.67 143.42 20.55C142.7 20.41 141.8 20.34 140.72 20.34H136.91C136.57 20.34 136.4 20.51 136.4 20.85V29.91C137.36 29.91 138.18 29.86 138.86 29.76C139.56 29.64 140.13 29.44 140.57 29.16C141.03 28.88 141.38 28.5 141.62 28.02C141.86 27.54 142.01 26.92 142.07 26.16H143.12V34.95H142.07C141.97 34.19 141.81 33.56 141.59 33.06C141.37 32.56 141.04 32.17 140.6 31.89C140.18 31.61 139.63 31.41 138.95 31.29C138.27 31.17 137.42 31.11 136.4 31.11V37.23ZM154.967 37.32C154.967 38.08 154.997 38.69 155.057 39.15C155.117 39.61 155.237 39.97 155.417 40.23C155.617 40.49 155.887 40.67 156.227 40.77C156.587 40.87 157.057 40.93 157.637 40.95V42H149.357V40.95C149.957 40.93 150.437 40.87 150.797 40.77C151.157 40.65 151.437 40.47 151.637 40.23C151.857 39.99 151.997 39.66 152.057 39.24C152.137 38.8 152.177 38.23 152.177 37.53V24.6C152.177 23.52 152.157 22.62 152.117 21.9C152.097 21.16 152.057 20.66 151.997 20.4C151.897 19.94 151.657 19.63 151.277 19.47C150.917 19.31 150.257 19.23 149.297 19.23V18.21L154.967 17.1V37.32ZM168.203 25.8C169.343 25.8 170.423 26.01 171.443 26.43C172.463 26.83 173.353 27.39 174.113 28.11C174.893 28.83 175.503 29.69 175.943 30.69C176.403 31.67 176.633 32.75 176.633 33.93C176.633 35.15 176.403 36.27 175.943 37.29C175.503 38.31 174.893 39.19 174.113 39.93C173.353 40.67 172.463 41.25 171.443 41.67C170.423 42.09 169.343 42.3 168.203 42.3C167.083 42.3 166.013 42.1 164.993 41.7C163.993 41.28 163.113 40.7 162.353 39.96C161.593 39.22 160.993 38.34 160.553 37.32C160.113 36.28 159.893 35.15 159.893 33.93C159.893 32.75 160.113 31.66 160.553 30.66C160.993 29.66 161.593 28.8 162.353 28.08C163.113 27.36 163.993 26.8 164.993 26.4C166.013 26 167.083 25.8 168.203 25.8ZM168.203 27.24C167.463 27.24 166.783 27.4 166.163 27.72C165.563 28.04 165.043 28.5 164.603 29.1C164.183 29.68 163.853 30.39 163.613 31.23C163.393 32.05 163.283 32.96 163.283 33.96C163.283 35 163.393 35.94 163.613 36.78C163.853 37.62 164.183 38.34 164.603 38.94C165.043 39.52 165.563 39.97 166.163 40.29C166.763 40.61 167.443 40.77 168.203 40.77C168.963 40.77 169.653 40.61 170.273 40.29C170.893 39.97 171.423 39.51 171.863 38.91C172.303 38.31 172.643 37.59 172.883 36.75C173.123 35.91 173.243 34.98 173.243 33.96C173.243 32.96 173.123 32.05 172.883 31.23C172.643 30.41 172.303 29.71 171.863 29.13C171.423 28.53 170.893 28.07 170.273 27.75C169.653 27.41 168.963 27.24 168.203 27.24ZM184.742 37.23C184.742 38.05 184.762 38.7 184.802 39.18C184.842 39.66 184.942 40.03 185.102 40.29C185.282 40.53 185.532 40.69 185.852 40.77C186.172 40.85 186.622 40.91 187.202 40.95V42H179.222V40.95C179.802 40.93 180.262 40.88 180.602 40.8C180.942 40.7 181.202 40.53 181.382 40.29C181.562 40.05 181.672 39.71 181.712 39.27C181.772 38.81 181.802 38.2 181.802 37.44V33.93C181.802 32.57 181.782 31.51 181.742 30.75C181.722 29.99 181.622 29.43 181.442 29.07C181.282 28.71 181.022 28.5 180.662 28.44C180.302 28.36 179.802 28.32 179.162 28.32V27.27L184.412 26.13L184.832 29.85H184.952C185.212 29.25 185.532 28.7 185.912 28.2C186.312 27.7 186.742 27.28 187.202 26.94C187.662 26.58 188.142 26.3 188.642 26.1C189.142 25.9 189.652 25.8 190.172 25.8C190.812 25.8 191.312 25.96 191.672 26.28C192.052 26.58 192.242 26.99 192.242 27.51C192.242 27.99 192.092 28.37 191.792 28.65C191.492 28.91 191.062 29.04 190.502 29.04C190.182 29.04 189.912 29 189.692 28.92C189.472 28.84 189.272 28.76 189.092 28.68C188.932 28.58 188.772 28.49 188.612 28.41C188.472 28.33 188.312 28.29 188.132 28.29C187.592 28.29 187.052 28.64 186.512 29.34C185.972 30.02 185.552 30.89 185.252 31.95C185.092 32.53 184.962 33.19 184.862 33.93C184.782 34.65 184.742 35.41 184.742 36.21V37.23ZM202.849 33.12C201.709 33.56 200.739 33.99 199.939 34.41C199.159 34.83 198.529 35.25 198.049 35.67C197.569 36.09 197.219 36.51 196.999 36.93C196.799 37.35 196.699 37.78 196.699 38.22C196.699 38.88 196.919 39.42 197.359 39.84C197.799 40.26 198.379 40.47 199.099 40.47C199.619 40.47 200.099 40.34 200.539 40.08C200.999 39.82 201.399 39.47 201.739 39.03C202.079 38.57 202.349 38.04 202.549 37.44C202.749 36.82 202.849 36.17 202.849 35.49V33.12ZM202.849 31.83V30.6C202.849 28.16 201.809 26.94 199.729 26.94C199.389 26.94 199.099 26.97 198.859 27.03C198.619 27.09 198.419 27.19 198.259 27.33C198.099 27.47 197.949 27.67 197.809 27.93C197.689 28.19 197.569 28.51 197.449 28.89C197.229 29.47 197.009 29.86 196.789 30.06C196.589 30.24 196.289 30.33 195.889 30.33C194.889 30.33 194.389 29.83 194.389 28.83C194.389 27.87 194.899 27.13 195.919 26.61C196.939 26.07 198.389 25.8 200.269 25.8C202.269 25.8 203.689 26.16 204.529 26.88C205.369 27.58 205.789 28.78 205.789 30.48V37.2C205.789 39.48 206.239 40.62 207.139 40.62C207.419 40.62 207.689 40.59 207.949 40.53C208.209 40.45 208.429 40.26 208.609 39.96L209.029 40.68C208.789 41.14 208.349 41.53 207.709 41.85C207.069 42.15 206.399 42.3 205.699 42.3C204.819 42.3 204.159 42.02 203.719 41.46C203.299 40.9 203.089 40.11 203.089 39.09H202.939C202.419 40.07 201.699 40.85 200.779 41.43C199.859 41.99 198.839 42.27 197.719 42.27C196.459 42.27 195.469 41.95 194.749 41.31C194.029 40.67 193.669 39.81 193.669 38.73C193.669 38.25 193.749 37.79 193.909 37.35C194.089 36.91 194.369 36.49 194.749 36.09C195.129 35.69 195.629 35.3 196.249 34.92C196.869 34.52 197.629 34.12 198.529 33.72L202.849 31.83Z" fill="#172C00"/>
<path d="M22.5 41.5V26.05H21.5C19.3667 26.05 17.3583 25.6417 15.475 24.825C13.5917 24.0083 11.9167 22.85 10.45 21.35C8.98333 19.85 7.875 18.1167 7.125 16.15C6.375 14.1833 6 12.1333 6 10V6H9.9161C11.972 6 13.95 6.40833 15.85 7.225C17.75 8.04167 19.45 9.2 20.95 10.7C22.05 11.8333 22.9583 13.1 23.675 14.5C24.3917 15.9 24.9 17.3833 25.2 18.95C25.4549 18.5533 25.7353 18.1708 26.0412 17.8025C26.3471 17.4342 26.6667 17.0667 27 16.7C28.5 15.2 30.2 14.0417 32.1 13.225C34 12.4083 35.9945 12 38.0834 12H42V16C42 18.1333 41.6004 20.1833 40.8011 22.15C40.0018 24.1167 38.8681 25.85 37.4 27.35C35.9 28.85 34.2073 30 32.322 30.8C30.4366 31.6 28.4626 32 26.4 32H25.5V41.5H22.5ZM22.55 23C22.55 20.9667 22.2167 19.075 21.55 17.325C20.8833 15.575 19.9667 14.0917 18.8 12.875C17.6333 11.6583 16.2 10.7083 14.5 10.025C12.8 9.34167 10.9667 9 9 9C9 11.1 9.30833 13.025 9.925 14.775C10.5417 16.525 11.4333 18.0167 12.6 19.25C14 20.75 15.5083 21.75 17.125 22.25C18.7417 22.75 20.55 23 22.55 23ZM25.5 29C27.5 29 29.35 28.675 31.05 28.025C32.75 27.375 34.1833 26.4417 35.35 25.225C36.5167 24.0083 37.4167 22.525 38.05 20.775C38.6833 19.025 39 17.1 39 15C37 15 35.15 15.3417 33.45 16.025C31.75 16.7083 30.3167 17.65 29.15 18.85C27.7167 20.35 26.75 21.9167 26.25 23.55C25.75 25.1833 25.5 27 25.5 29Z" fill="#172C00"/>
<path d="M27 27C27 27 28 23.5 30.5 21C33 18.5 35.5 18 35.5 18" stroke="#172C00" stroke-linecap="round"/>
<path d="M12.2134 13C12.2134 13 15.6872 14.0876 18.1236 16.6495C20.5601 19.2115 20.9972 21.7233 20.9972 21.7233" stroke="#172C00" stroke-linecap="round"/>
</svg>
